# xmcd
#
# Track frame offsets: 
#        150
#        24181
#        43974
#        71887
#        97787
#        121611
#        145970
#        165309
#        180899
#        203575
#        230418
#        253329
#        276128
#        303190
#
# Disc length: 4320 seconds
#
# Revision: 0
# Processed by: cddbd v1.5.2PL0 Copyright (c) Steve Scherf et al.
# Submitted via: ExactAudioCopy v0.95b3
#
DISCID=b110de0e
DTITLE=Various Artist - Into the Future-Sector One
DYEAR=1997
DGENRE=Acid
TTITLE0=DJ Randy - Deception
TTITLE1=Synergy - Interfuse
TTITLE2=Nostrum - Blowback
TTITLE3=Interceptor - I Have a Dream
TTITLE4=Acidphase III - Innocence
TTITLE5=Club Movers - Floor Fusion
TTITLE6=Indra - Style-O-Phonic
TTITLE7=Zone One - Future
TTITLE8=Chemical Kid - Xor-Murtson
TTITLE9=Gollum and Gary D - Black Arrows
TTITLE10=Code 15 - Take You Higher
TTITLE11=Alliance - First Night
TTITLE12=X-ite - Cyberworld
TTITLE13=Cyclone Tracy - Piano In Trance
EXTD=
EXTT0=
EXTT1=
EXTT2=
EXTT3=
EXTT4=
EXTT5=
EXTT6=
EXTT7=
EXTT8=
EXTT9=
EXTT10=
EXTT11=
EXTT12=
EXTT13=
PLAYORDER=
